<?xml version="1.0" encoding="UTF-8" standalone="no"?>
<!-- Created with Inkscape (http://www.inkscape.org/) -->

<svg
   xmlns:dc="http://purl.org/dc/elements/1.1/"
   xmlns:cc="http://creativecommons.org/ns#"
   xmlns:rdf="http://www.w3.org/1999/02/22-rdf-syntax-ns#"
   xmlns:svg="http://www.w3.org/2000/svg"
   xmlns="http://www.w3.org/2000/svg"
   xmlns:xlink="http://www.w3.org/1999/xlink"
   xmlns:sodipodi="http://sodipodi.sourceforge.net/DTD/sodipodi-0.dtd"
   xmlns:inkscape="http://www.inkscape.org/namespaces/inkscape"
   width="112"
   height="28"
   id="svg4428"
   version="1.1"
   inkscape:version="0.48.4 r9939"
   sodipodi:docname="close.svg">
  <defs
     id="defs4430">
    <linearGradient
       id="linearGradient3913">
      <stop
         style="stop-color:#ffffff;stop-opacity:1;"
         offset="0"
         id="stop3915" />
      <stop
         id="stop3921"
         offset="0.5"
         style="stop-color:#ffffff;stop-opacity:0.49803922;" />
      <stop
         style="stop-color:#ffffff;stop-opacity:0;"
         offset="1"
         id="stop3917" />
    </linearGradient>
    <linearGradient
       id="linearGradient3868">
      <stop
         style="stop-color:#5a5a5a;stop-opacity:1;"
         offset="0"
         id="stop3870" />
      <stop
         style="stop-color:#646464;stop-opacity:1;"
         offset="1"
         id="stop3872" />
    </linearGradient>
    <linearGradient
       id="linearGradient3813">
      <stop
         style="stop-color:#666666;stop-opacity:1;"
         offset="0"
         id="stop3815" />
      <stop
         style="stop-color:#636363;stop-opacity:1;"
         offset="1"
         id="stop3817" />
    </linearGradient>
    <linearGradient
       id="linearGradient3787">
      <stop
         style="stop-color:#e5e5df;stop-opacity:1;"
         offset="0"
         id="stop3789" />
      <stop
         style="stop-color:#dadad4;stop-opacity:1;"
         offset="1"
         id="stop3791" />
    </linearGradient>
    <linearGradient
       id="linearGradient3806-3-5-6">
      <stop
         style="stop-color:#303030;stop-opacity:1;"
         offset="0"
         id="stop3808-6-9-1" />
      <stop
         style="stop-color:#232323;stop-opacity:1;"
         offset="1"
         id="stop3810-4-6-3" />
    </linearGradient>
    <linearGradient
       inkscape:collect="always"
       xlink:href="#linearGradient3787"
       id="linearGradient3793"
       x1="40"
       y1="1044.3622"
       x2="40"
       y2="1032.3622"
       gradientUnits="userSpaceOnUse" />
    <linearGradient
       inkscape:collect="always"
       xlink:href="#linearGradient3787"
       id="linearGradient3828"
       gradientUnits="userSpaceOnUse"
       x1="40"
       y1="1044.3622"
       x2="40"
       y2="1032.3622"
       gradientTransform="matrix(1.1666666,0,0,1.0769231,-6.5,-80.335554)" />
    <linearGradient
       inkscape:collect="always"
       xlink:href="#linearGradient3787-8"
       id="linearGradient3835"
       gradientUnits="userSpaceOnUse"
       gradientTransform="matrix(1.1666666,0,0,1.0769231,-35.5,-1105.6978)"
       x1="40"
       y1="1044.3622"
       x2="40"
       y2="1032.3622" />
    <linearGradient
       inkscape:collect="always"
       xlink:href="#linearGradient3787-8"
       id="linearGradient3835-4"
       gradientUnits="userSpaceOnUse"
       gradientTransform="matrix(1.1666666,0,0,1.0769231,-35.5,-1105.6978)"
       x1="40"
       y1="1044.3622"
       x2="40"
       y2="1032.3622" />
    <linearGradient
       id="linearGradient3787-8">
      <stop
         style="stop-color:#f5f5ee;stop-opacity:1;"
         offset="0"
         id="stop3789-2" />
      <stop
         style="stop-color:#e6e6df;stop-opacity:1;"
         offset="1"
         id="stop3791-6" />
    </linearGradient>
    <linearGradient
       inkscape:collect="always"
       xlink:href="#linearGradient3787-8"
       id="linearGradient3835-3"
       gradientUnits="userSpaceOnUse"
       gradientTransform="matrix(1.1666666,0,0,1.0769231,-35.5,-1105.6978)"
       x1="40"
       y1="1044.3622"
       x2="40"
       y2="1032.3622" />
    <linearGradient
       id="linearGradient3787-7">
      <stop
         style="stop-color:#f5f5ee;stop-opacity:1;"
         offset="0"
         id="stop3789-3" />
      <stop
         style="stop-color:#e6e6e0;stop-opacity:1;"
         offset="1"
         id="stop3791-3" />
    </linearGradient>
    <linearGradient
       inkscape:collect="always"
       xlink:href="#linearGradient3787"
       id="linearGradient3807"
       x1="11"
       y1="15.75"
       x2="11"
       y2="8.25"
       gradientUnits="userSpaceOnUse" />
    <linearGradient
       inkscape:collect="always"
       xlink:href="#linearGradient3813"
       id="linearGradient3819"
       x1="29.5"
       y1="15.2"
       x2="29.5"
       y2="8.8000002"
       gradientUnits="userSpaceOnUse" />
    <linearGradient
       inkscape:collect="always"
       xlink:href="#linearGradient4231"
       id="linearGradient3807-1"
       x1="10"
       y1="7.0000038"
       x2="10"
       y2="15.888954"
       gradientUnits="userSpaceOnUse" />
    <linearGradient
       id="linearGradient4231">
      <stop
         id="stop4233"
         offset="0"
         style="stop-color:#e7e7e1;stop-opacity:1;" />
      <stop
         id="stop4239"
         offset="1"
         style="stop-color:#dadad3;stop-opacity:1;" />
    </linearGradient>
    <linearGradient
       inkscape:collect="always"
       xlink:href="#linearGradient4231-1"
       id="linearGradient3807-1-1"
       x1="10"
       y1="15.888976"
       x2="10"
       y2="7.0000262"
       gradientUnits="userSpaceOnUse" />
    <linearGradient
       id="linearGradient4231-1">
      <stop
         id="stop4233-6"
         offset="0"
         style="stop-color:#e5e5de;stop-opacity:1;" />
      <stop
         id="stop4239-7"
         offset="1"
         style="stop-color:#dadad3;stop-opacity:1;" />
    </linearGradient>
    <linearGradient
       id="linearGradient4363">
      <stop
         style="stop-color:#979791;stop-opacity:1;"
         offset="0"
         id="stop4365" />
      <stop
         style="stop-color:#dadad4;stop-opacity:0;"
         offset="1"
         id="stop4367" />
    </linearGradient>
    <linearGradient
       id="linearGradient4363-7">
      <stop
         style="stop-color:#f5f5ef;stop-opacity:1;"
         offset="0"
         id="stop4365-9" />
      <stop
         style="stop-color:#dadad4;stop-opacity:0;"
         offset="1"
         id="stop4367-8" />
    </linearGradient>
    <linearGradient
       inkscape:collect="always"
       xlink:href="#linearGradient4231-7"
       id="linearGradient4361"
       gradientUnits="userSpaceOnUse"
       gradientTransform="matrix(1.1875,0,0,1,-41.25,0)"
       x1="248.63158"
       y1="79"
       x2="248.63158"
       y2="58" />
    <linearGradient
       id="linearGradient4231-7">
      <stop
         id="stop4233-4"
         offset="0"
         style="stop-color:#e6e6df;stop-opacity:1;" />
      <stop
         id="stop4239-8"
         offset="1"
         style="stop-color:#d1d1ca;stop-opacity:1;" />
    </linearGradient>
    <linearGradient
       inkscape:collect="always"
       xlink:href="#linearGradient4231-7"
       id="linearGradient3127"
       gradientUnits="userSpaceOnUse"
       gradientTransform="matrix(1.1875,0,0,1,-262.25,-55.99998)"
       x1="248.63158"
       y1="79"
       x2="248.63158"
       y2="58" />
    <linearGradient
       inkscape:collect="always"
       xlink:href="#linearGradient4231-7"
       id="linearGradient3154"
       gradientUnits="userSpaceOnUse"
       gradientTransform="matrix(1.1875,0,0,1,-262.25,-55.99998)"
       x1="248.63158"
       y1="79"
       x2="248.63158"
       y2="58" />
    <linearGradient
       inkscape:collect="always"
       xlink:href="#linearGradient4231-7"
       id="linearGradient3159"
       gradientUnits="userSpaceOnUse"
       gradientTransform="matrix(1.1875,0,0,1,-249.25,-54.99998)"
       x1="248.63158"
       y1="79"
       x2="248.63158"
       y2="58" />
    <linearGradient
       inkscape:collect="always"
       xlink:href="#linearGradient4231-7-9"
       id="linearGradient3159-0"
       gradientUnits="userSpaceOnUse"
       gradientTransform="matrix(1.1875,0,0,1,-262.25,-55.99998)"
       x1="248.63158"
       y1="79"
       x2="248.63158"
       y2="58" />
    <linearGradient
       id="linearGradient4231-7-9">
      <stop
         id="stop4233-4-2"
         offset="0"
         style="stop-color:#e6e6df;stop-opacity:1;" />
      <stop
         id="stop4239-8-9"
         offset="1"
         style="stop-color:#d1d1ca;stop-opacity:1;" />
    </linearGradient>
    <linearGradient
       id="linearGradient4231-5">
      <stop
         id="stop4233-41"
         offset="0"
         style="stop-color:#e5e5de;stop-opacity:1;" />
      <stop
         id="stop4239-73"
         offset="1"
         style="stop-color:#dadad3;stop-opacity:1;" />
    </linearGradient>
    <linearGradient
       inkscape:collect="always"
       xlink:href="#linearGradient4231-7-7"
       id="linearGradient3159-1"
       gradientUnits="userSpaceOnUse"
       gradientTransform="matrix(1.1875,0,0,1,-262.25,-55.99998)"
       x1="248.63158"
       y1="79"
       x2="248.63158"
       y2="58" />
    <linearGradient
       id="linearGradient4231-7-7">
      <stop
         id="stop4233-4-7"
         offset="0"
         style="stop-color:#e6e6df;stop-opacity:1;" />
      <stop
         id="stop4239-8-2"
         offset="1"
         style="stop-color:#d1d1ca;stop-opacity:1;" />
    </linearGradient>
    <linearGradient
       inkscape:collect="always"
       xlink:href="#linearGradient4231-73"
       id="linearGradient3807-1-7"
       x1="10"
       y1="15.888976"
       x2="10"
       y2="7.0000262"
       gradientUnits="userSpaceOnUse" />
    <linearGradient
       id="linearGradient4231-73">
      <stop
         id="stop4233-1"
         offset="0"
         style="stop-color:#e5e5de;stop-opacity:1;" />
      <stop
         id="stop4239-85"
         offset="1"
         style="stop-color:#dadad3;stop-opacity:1;" />
    </linearGradient>
    <filter
       inkscape:collect="always"
       id="filter3885">
      <feGaussianBlur
         inkscape:collect="always"
         stdDeviation="0.085"
         id="feGaussianBlur3887" />
    </filter>
    <filter
       inkscape:collect="always"
       id="filter3877">
      <feGaussianBlur
         inkscape:collect="always"
         stdDeviation="0.085"
         id="feGaussianBlur3879" />
    </filter>
    <radialGradient
       inkscape:collect="always"
       xlink:href="#linearGradient4363-7"
       id="radialGradient5329"
       cx="-14.843177"
       cy="1034.9207"
       fx="-14.843177"
       fy="1034.9207"
       r="8.0063524"
       gradientTransform="matrix(1,0,0,0.49292897,0.12127985,524.5964)"
       gradientUnits="userSpaceOnUse" />
    <filter
       inkscape:collect="always"
       id="filter5355"
       x="-0.18225814"
       width="1.3645163"
       y="-0.37276218"
       height="1.7455244">
      <feGaussianBlur
         inkscape:collect="always"
         stdDeviation="1.2065266"
         id="feGaussianBlur5357" />
    </filter>
    <filter
       color-interpolation-filters="sRGB"
       inkscape:collect="always"
       id="filter3877-8">
      <feGaussianBlur
         inkscape:collect="always"
         stdDeviation="0.085"
         id="feGaussianBlur3879-9" />
    </filter>
    <filter
       color-interpolation-filters="sRGB"
       inkscape:collect="always"
       id="filter3877-7">
      <feGaussianBlur
         inkscape:collect="always"
         stdDeviation="0.085"
         id="feGaussianBlur3879-93" />
    </filter>
    <filter
       color-interpolation-filters="sRGB"
       inkscape:collect="always"
       id="filter3877-3">
      <feGaussianBlur
         inkscape:collect="always"
         stdDeviation="0.085"
         id="feGaussianBlur3879-0" />
    </filter>
  </defs>
  <sodipodi:namedview
     id="base"
     pagecolor="#bdc3c7"
     bordercolor="#666666"
     borderopacity="1.0"
     inkscape:pageopacity="1"
     inkscape:pageshadow="2"
     inkscape:zoom="5.8303572"
     inkscape:cx="56.302676"
     inkscape:cy="-3.4473562"
     inkscape:document-units="px"
     inkscape:current-layer="layer1"
     showgrid="false"
     inkscape:snap-bbox="true"
     inkscape:window-width="1874"
     inkscape:window-height="1050"
     inkscape:window-x="42"
     inkscape:window-y="0"
     inkscape:window-maximized="1"
     showborder="false"
     inkscape:showpageshadow="false">
    <inkscape:grid
       type="xygrid"
       id="grid4436"
       empspacing="5"
       visible="true"
       enabled="true"
       snapvisiblegridlinesonly="true" />
  </sodipodi:namedview>
  <metadata
     id="metadata4433">
    <rdf:RDF>
      <cc:Work
         rdf:about="">
        <dc:format>image/svg+xml</dc:format>
        <dc:type
           rdf:resource="http://purl.org/dc/dcmitype/StillImage" />
        <dc:title />
      </cc:Work>
    </rdf:RDF>
  </metadata>
  <g
     inkscape:label="Layer 1"
     inkscape:groupmode="layer"
     id="layer1"
     transform="translate(0,-1024.3622)">
    <g
       id="4"
       inkscape:label="#g3842"
       transform="translate(81,-3)" />
    <path
       style="fill:#ffc9cc;fill-opacity:1;stroke:#ff676e;stroke-width:1.50000000000000000;stroke-miterlimit:4;stroke-opacity:1;stroke-dasharray:none;filter:url(#filter3877)"
       d="m -14.56466,1030.3675 c -1.1736,0 -2.29706,0.2528 -3.31398,0.683 -1.01693,0.4301 -1.93775,1.0272 -2.70685,1.7963 -0.7691,0.769 -1.36601,1.6897 -1.79613,2.7066 -0.43012,1.0169 -0.68304,2.1405 -0.68304,3.3141 0,1.1736 0.25292,2.2972 0.68304,3.3141 0.43012,1.0169 1.02703,1.9376 1.79613,2.7066 0.7691,0.7691 1.68992,1.3661 2.70685,1.7963 1.01692,0.4301 2.14038,0.683 3.31398,0.683 1.17361,0 2.29707,-0.2529 3.31399,-0.683 1.01693,-0.4302 1.9377495,-1.0272 2.7068391,-1.7963 0.7691,-0.769 1.36601,-1.6897 1.79614,-2.7066 0.43012,-1.0169 0.68303,-2.1405 0.68303,-3.3141 0,-1.1736 -0.25291,-2.2972 -0.68303,-3.3141 -0.43013,-1.0169 -1.02704,-1.9376 -1.79614,-2.7066 -0.7690896,-0.7691 -1.6899091,-1.3662 -2.7068391,-1.7963 -1.01692,-0.4302 -2.14038,-0.683 -3.31399,-0.683 z"
       id="active-center"
       inkscape:connector-curvature="0" />
    <path
       style="fill:#dcdcdc;fill-opacity:1;stroke:#e6e6e6;stroke-opacity:1;stroke-width:1.5;stroke-miterlimit:4;stroke-dasharray:none;filter:url(#filter3885)"
       d="m 155.83988,1029.6741 c -1.17361,0 -2.29706,0.2528 -3.31399,0.683 -1.01692,0.4301 -1.93774,1.0272 -2.70684,1.7963 -0.7691,0.769 -1.36601,1.6897 -1.79613,2.7066 -0.43013,1.0169 -0.68304,2.1405 -0.68304,3.3141 0,1.1736 0.25291,2.2972 0.68304,3.3141 0.43012,1.0169 1.02703,1.9376 1.79613,2.7066 0.7691,0.7691 1.68992,1.3661 2.70684,1.7963 1.01693,0.4301 2.14038,0.683 3.31399,0.683 1.1736,0 2.29706,-0.2529 3.31399,-0.683 1.01692,-0.4302 1.93774,-1.0272 2.70684,-1.7963 0.7691,-0.769 1.36601,-1.6897 1.79614,-2.7066 0.43012,-1.0169 0.68303,-2.1405 0.68303,-3.3141 0,-1.1736 -0.25291,-2.2972 -0.68303,-3.3141 -0.43013,-1.0169 -1.02704,-1.9376 -1.79614,-2.7066 -0.7691,-0.7691 -1.68992,-1.3662 -2.70684,-1.7963 -1.01693,-0.4302 -2.14039,-0.683 -3.31399,-0.683 z"
       id="deactivated-center"
       inkscape:connector-curvature="0" />
    <text
       xml:space="preserve"
       style="font-size:4.95831585px;font-style:normal;font-weight:normal;line-height:125%;letter-spacing:0px;word-spacing:0px;fill:#000000;fill-opacity:1;stroke:none;font-family:Sans"
       x="-32.359913"
       y="962.20459"
       id="text3129"
       sodipodi:linespacing="125%"
       transform="scale(0.93892719,1.0650453)"><tspan
         sodipodi:role="line"
         id="tspan3131"
         x="-32.359913"
         y="962.20459">active-center</tspan></text>
    <text
       xml:space="preserve"
       style="font-size:4.95831585px;font-style:normal;font-weight:normal;line-height:125%;letter-spacing:0px;word-spacing:0px;fill:#000000;fill-opacity:1;stroke:none;font-family:Sans"
       x="11.110399"
       y="962.88507"
       id="text3129-2"
       sodipodi:linespacing="125%"
       transform="scale(0.93892719,1.0650453)"><tspan
         sodipodi:role="line"
         id="tspan3131-8"
         x="11.110399"
         y="962.88507">hover-center</tspan></text>
    <text
       xml:space="preserve"
       style="font-size:4.95831585px;font-style:normal;font-weight:normal;line-height:125%;letter-spacing:0px;word-spacing:0px;fill:#000000;fill-opacity:1;stroke:none;font-family:Sans"
       x="51.589565"
       y="962.71918"
       id="text3129-7"
       sodipodi:linespacing="125%"
       transform="scale(0.93892719,1.0650453)"><tspan
         sodipodi:role="line"
         id="tspan3131-9"
         x="51.589565"
         y="962.71918">pressed-center</tspan></text>
    <text
       xml:space="preserve"
       style="font-size:4.95831585px;font-style:normal;font-weight:normal;line-height:125%;letter-spacing:0px;word-spacing:0px;fill:#000000;fill-opacity:1;stroke:none;font-family:Sans"
       x="96.745804"
       y="963.06854"
       id="text3129-7-7"
       sodipodi:linespacing="125%"
       transform="scale(0.93892719,1.0650453)"><tspan
         sodipodi:role="line"
         id="tspan3131-9-4"
         x="96.745804"
         y="963.06854">inactive-center</tspan></text>
    <text
       xml:space="preserve"
       style="font-size:4.95831585px;font-style:normal;font-weight:normal;line-height:125%;letter-spacing:0px;word-spacing:0px;fill:#000000;fill-opacity:1;stroke:none;font-family:Sans"
       x="145.82875"
       y="962.55316"
       id="text3129-7-7-8"
       sodipodi:linespacing="125%"
       transform="scale(0.93892719,1.0650453)"><tspan
         sodipodi:role="line"
         id="tspan3131-9-4-4"
         x="145.82875"
         y="962.55316">deactivated-center</tspan></text>
    <path
       style="fill:url(#radialGradient5329);fill-opacity:1;stroke:#000000;stroke-width:0.1;stroke-linecap:butt;stroke-linejoin:miter;stroke-miterlimit:4;stroke-opacity:1;stroke-dasharray:none;filter:url(#filter5355)"
       d="m -22.665748,1038.6229 15.8877044,0 c -0.3742772,-10.7481 -15.8936154,-9.9594 -15.8877044,0 z"
       id="path3863"
       inkscape:connector-curvature="0"
       sodipodi:nodetypes="ccc"
       transform="matrix(0.93621189,0,0,0.86014161,-10.398936,123.65964)" />
    <path
       style="fill:#ff8f95;fill-opacity:1;stroke:#ff676e;stroke-width:1.50000000000000000;stroke-miterlimit:4;stroke-opacity:1;stroke-dasharray:none;filter:url(#filter3877-8)"
       d="m 24.355283,1030.6555 c -1.1736,0 -2.29706,0.2528 -3.31398,0.683 -1.01693,0.4301 -1.93775,1.0272 -2.70685,1.7963 -0.7691,0.769 -1.36601,1.6897 -1.79613,2.7066 -0.43012,1.0169 -0.68304,2.1405 -0.68304,3.3141 0,1.1736 0.25292,2.2972 0.68304,3.3141 0.43012,1.0169 1.02703,1.9376 1.79613,2.7066 0.7691,0.7691 1.68992,1.3661 2.70685,1.7963 1.01692,0.4301 2.14038,0.683 3.31398,0.683 1.17361,0 2.29707,-0.2529 3.31399,-0.683 1.01693,-0.4302 1.93775,-1.0272 2.706839,-1.7963 0.7691,-0.769 1.36601,-1.6897 1.79614,-2.7066 0.43012,-1.0169 0.68303,-2.1405 0.68303,-3.3141 0,-1.1736 -0.25291,-2.2972 -0.68303,-3.3141 -0.43013,-1.0169 -1.02704,-1.9376 -1.79614,-2.7066 -0.769089,-0.7691 -1.689909,-1.3662 -2.706839,-1.7963 -1.01692,-0.4302 -2.14038,-0.683 -3.31399,-0.683 z"
       id="hover-center"
       inkscape:connector-curvature="0" />
    <path
       style="fill:#ffc9cc;fill-opacity:1;stroke:#ff676e;stroke-width:1.5;stroke-miterlimit:4;stroke-opacity:1;stroke-dasharray:none;filter:url(#filter3877-7)"
       d="m 65.004594,1030.9985 c -1.1736,0 -2.29706,0.2528 -3.31398,0.683 -1.01693,0.4301 -1.93775,1.0272 -2.70685,1.7963 -0.7691,0.769 -1.36601,1.6897 -1.79613,2.7066 -0.43012,1.0169 -0.68304,2.1405 -0.68304,3.3141 0,1.1736 0.25292,2.2972 0.68304,3.3141 0.43012,1.0169 1.02703,1.9376 1.79613,2.7066 0.7691,0.7691 1.68992,1.3661 2.70685,1.7963 1.01692,0.4301 2.14038,0.683 3.31398,0.683 1.17361,0 2.29707,-0.2529 3.31399,-0.683 1.01693,-0.4302 1.93775,-1.0272 2.706839,-1.7963 0.7691,-0.769 1.36601,-1.6897 1.79614,-2.7066 0.43012,-1.0169 0.68303,-2.1405 0.68303,-3.3141 0,-1.1736 -0.25291,-2.2972 -0.68303,-3.3141 -0.43013,-1.0169 -1.02704,-1.9376 -1.79614,-2.7066 -0.769089,-0.7691 -1.689909,-1.3662 -2.706839,-1.7963 -1.01692,-0.4302 -2.14038,-0.683 -3.31399,-0.683 z"
       id="pressed-center"
       inkscape:connector-curvature="0" />
    <path
       style="fill:#fff2f3;fill-opacity:1;stroke:#ff676e;stroke-width:1.50000000000000000;stroke-miterlimit:4;stroke-opacity:1;stroke-dasharray:none;filter:url(#filter3877-3)"
       d="m 107.19755,1030.6554 c -1.1736,0 -2.29706,0.2528 -3.31398,0.683 -1.01693,0.4301 -1.93775,1.0272 -2.70685,1.7963 -0.7691,0.769 -1.366011,1.6897 -1.796131,2.7066 -0.43012,1.0169 -0.68304,2.1405 -0.68304,3.3141 0,1.1736 0.25292,2.2972 0.68304,3.3141 0.43012,1.0169 1.027031,1.9376 1.796131,2.7066 0.7691,0.7691 1.68992,1.3661 2.70685,1.7963 1.01692,0.4301 2.14038,0.683 3.31398,0.683 1.17361,0 2.29707,-0.2529 3.31399,-0.683 1.01693,-0.4302 1.93775,-1.0272 2.70684,-1.7963 0.7691,-0.769 1.36601,-1.6897 1.79614,-2.7066 0.43012,-1.0169 0.68303,-2.1405 0.68303,-3.3141 0,-1.1736 -0.25291,-2.2972 -0.68303,-3.3141 -0.43013,-1.0169 -1.02704,-1.9376 -1.79614,-2.7066 -0.76909,-0.7691 -1.68991,-1.3662 -2.70684,-1.7963 -1.01692,-0.4302 -2.14038,-0.683 -3.31399,-0.683 z"
       id="inactive-center"
       inkscape:connector-curvature="0" />
  </g>
</svg>
