<?xml version="1.0" encoding="UTF-8" standalone="no"?>
<!-- Created with Inkscape (http://www.inkscape.org/) -->

<svg
   xmlns:dc="http://purl.org/dc/elements/1.1/"
   xmlns:cc="http://creativecommons.org/ns#"
   xmlns:rdf="http://www.w3.org/1999/02/22-rdf-syntax-ns#"
   xmlns:svg="http://www.w3.org/2000/svg"
   xmlns="http://www.w3.org/2000/svg"
   xmlns:sodipodi="http://sodipodi.sourceforge.net/DTD/sodipodi-0.dtd"
   xmlns:inkscape="http://www.inkscape.org/namespaces/inkscape"
   width="48"
   height="48"
   id="svg2"
   version="1.1"
   inkscape:version="0.48+devel r12859"
   sodipodi:docname="format-text-underline.svg">
  <defs
     id="defs4" />
  <sodipodi:namedview
     id="base"
     pagecolor="#ffffff"
     bordercolor="#666666"
     borderopacity="1.0"
     inkscape:pageopacity="0.0"
     inkscape:pageshadow="2"
     inkscape:zoom="3.8896747"
     inkscape:cx="-4.5590564"
     inkscape:cy="26.002862"
     inkscape:document-units="px"
     inkscape:current-layer="layer1"
     showgrid="false"
     inkscape:window-width="1366"
     inkscape:window-height="673"
     inkscape:window-x="0"
     inkscape:window-y="24"
     inkscape:window-maximized="1" />
  <metadata
     id="metadata7">
    <rdf:RDF>
      <cc:Work
         rdf:about="">
        <dc:format>image/svg+xml</dc:format>
        <dc:type
           rdf:resource="http://purl.org/dc/dcmitype/StillImage" />
        <dc:title />
      </cc:Work>
    </rdf:RDF>
  </metadata>
  <g
     inkscape:label="Capa 1"
     inkscape:groupmode="layer"
     id="layer1"
     transform="translate(0,-1004.3622)">
    <path
       style="font-size:55.04587173px;font-style:normal;font-variant:normal;font-weight:500;font-stretch:normal;text-align:start;line-height:125%;letter-spacing:0px;word-spacing:0px;writing-mode:lr-tb;text-anchor:start;fill:#4d4d4d;fill-opacity:1;stroke:none;font-family:Helvetica 65 Medium;-inkscape-font-specification:'Helvetica 65 Medium, Medium'"
       d="M 23.779297 9 C 17.504067 9 11.284117 11.14765 10.84375 18.46875 L 17.119141 18.46875 C 17.394371 15.38615 19.871595 13.953125 23.394531 13.953125 C 25.926641 13.953125 29.285156 14.558941 29.285156 17.806641 C 29.285156 21.494741 25.265714 21.000472 20.751953 21.826172 C 16.2241 22.344984 11.425295 23.279496 10.140625 28 L 16.683594 28 C 17.569373 26.562324 19.313687 25.986596 21.193359 25.679688 C 23.945652 25.184287 26.971832 25.238656 28.898438 23.972656 L 28.898438 28 L 35.173828 28 L 35.173828 17.257812 C 35.173828 11.257812 29.33893 9 23.779297 9 z "
       transform="translate(0,1004.3622)"
       id="path3254" />
    <rect
       y="1036.3622"
       x="9"
       height="7"
       width="30"
       id="rect3372"
       style="fill:#4d4d4d;fill-opacity:1;stroke:none" />
  </g>
</svg>
