<?xml version="1.0" encoding="UTF-8" standalone="no"?>
<!-- Created with Inkscape (http://www.inkscape.org/) -->

<svg
   xmlns:dc="http://purl.org/dc/elements/1.1/"
   xmlns:cc="http://creativecommons.org/ns#"
   xmlns:rdf="http://www.w3.org/1999/02/22-rdf-syntax-ns#"
   xmlns:svg="http://www.w3.org/2000/svg"
   xmlns="http://www.w3.org/2000/svg"
   xmlns:sodipodi="http://sodipodi.sourceforge.net/DTD/sodipodi-0.dtd"
   xmlns:inkscape="http://www.inkscape.org/namespaces/inkscape"
   width="48"
   height="48"
   id="svg2"
   version="1.1"
   inkscape:version="0.48+devel r12859"
   sodipodi:docname="format-text-strikethrough.svg">
  <defs
     id="defs4" />
  <sodipodi:namedview
     id="base"
     pagecolor="#ffffff"
     bordercolor="#666666"
     borderopacity="1.0"
     inkscape:pageopacity="0.0"
     inkscape:pageshadow="2"
     inkscape:zoom="5.5008307"
     inkscape:cx="-7.217135"
     inkscape:cy="39.152456"
     inkscape:document-units="px"
     inkscape:current-layer="layer1"
     showgrid="false"
     inkscape:window-width="1366"
     inkscape:window-height="673"
     inkscape:window-x="0"
     inkscape:window-y="24"
     inkscape:window-maximized="1" />
  <metadata
     id="metadata7">
    <rdf:RDF>
      <cc:Work
         rdf:about="">
        <dc:format>image/svg+xml</dc:format>
        <dc:type
           rdf:resource="http://purl.org/dc/dcmitype/StillImage" />
        <dc:title />
      </cc:Work>
    </rdf:RDF>
  </metadata>
  <g
     inkscape:label="Capa 1"
     inkscape:groupmode="layer"
     id="layer1"
     transform="translate(0,-1004.3622)">
    <path
       style="font-size:55.04587173px;font-style:normal;font-variant:normal;font-weight:500;font-stretch:normal;text-align:start;line-height:125%;letter-spacing:0px;word-spacing:0px;writing-mode:lr-tb;text-anchor:start;fill:#4d4d4d;fill-opacity:1;stroke:none;font-family:Helvetica 65 Medium;-inkscape-font-specification:'Helvetica 65 Medium, Medium'"
       d="M 23.779297 9 C 17.504067 9 11.284117 11.14765 10.84375 18.46875 L 17.119141 18.46875 C 17.394371 15.38615 19.871595 13.953125 23.394531 13.953125 C 25.926641 13.953125 29.285156 14.558941 29.285156 17.806641 C 29.285156 18.057424 29.262614 18.286173 29.226562 18.5 L 35.173828 18.5 L 35.173828 17.257812 C 35.173828 11.257812 29.33893 9 23.779297 9 z M 9.859375 29.5 C 9.821371 29.877655 9.7988281 30.269802 9.7988281 30.6875 C 9.7988281 36.2471 14.42175 39 19.541016 39 C 22.898814 39 26.917466 37.95325 29.394531 35.53125 C 29.889943 38.11845 31.706171 39 34.238281 39 C 35.284153 39 37.265392 38.615456 38.201172 38.285156 L 38.201172 33.935547 C 37.540622 34.045647 37.045477 34.046875 36.660156 34.046875 C 35.504192 34.046875 35.173828 33.439738 35.173828 31.898438 L 35.173828 29.5 L 28.820312 29.5 C 28.252703 32.817667 24.398444 34.046875 21.853516 34.046875 C 19.651681 34.046875 16.074219 33.219509 16.074219 30.412109 C 16.074219 30.083464 16.104541 29.784597 16.150391 29.5 L 9.859375 29.5 z "
       transform="translate(0,1004.3622)"
       id="path3254" />
    <rect
       y="1024.8622"
       x="9"
       height="7"
       width="30"
       id="rect3372"
       style="fill:#4d4d4d;fill-opacity:1;stroke:none" />
  </g>
</svg>
