<?xml version="1.0" encoding="UTF-8" standalone="no"?>
<!-- Created with Inkscape (http://www.inkscape.org/) -->

<svg
   xmlns:dc="http://purl.org/dc/elements/1.1/"
   xmlns:cc="http://creativecommons.org/ns#"
   xmlns:rdf="http://www.w3.org/1999/02/22-rdf-syntax-ns#"
   xmlns:svg="http://www.w3.org/2000/svg"
   xmlns="http://www.w3.org/2000/svg"
   xmlns:xlink="http://www.w3.org/1999/xlink"
   xmlns:sodipodi="http://sodipodi.sourceforge.net/DTD/sodipodi-0.dtd"
   xmlns:inkscape="http://www.inkscape.org/namespaces/inkscape"
   width="48"
   height="48"
   id="svg3760"
   version="1.1"
   inkscape:version="0.48+devel r12861"
   sodipodi:docname="project-open.svg">
  <defs
     id="defs3762">
    <linearGradient
       id="linearGradient3637">
      <stop
         offset="0"
         style="stop-color:#f0f0f0;stop-opacity:1"
         id="stop3639" />
      <stop
         offset="1"
         style="stop-color:#aaaaaa;stop-opacity:1"
         id="stop3641" />
    </linearGradient>
    <linearGradient
       gradientTransform="scale(1.0058652,0.994169)"
       gradientUnits="userSpaceOnUse"
       id="ButtonShadow"
       y2="7.0165396"
       x2="45.447727"
       y1="92.539597"
       x1="45.447727">
      <stop
         offset="0"
         style="stop-color:#1a1a1a;stop-opacity:1"
         id="stop3750" />
      <stop
         offset="1"
         style="stop-color:#1a1a1a;stop-opacity:0.58823532"
         id="stop3752" />
    </linearGradient>
    <linearGradient
       id="linearGradient3737">
      <stop
         offset="0"
         style="stop-color:#ffffff;stop-opacity:1"
         id="stop3739" />
      <stop
         offset="1"
         style="stop-color:#ffffff;stop-opacity:0"
         id="stop3741" />
    </linearGradient>
    <linearGradient
       id="linearGradient3700">
      <stop
         offset="0"
         style="stop-color:#2276c5;stop-opacity:1"
         id="stop3702" />
      <stop
         offset="1"
         style="stop-color:#68baf4;stop-opacity:1"
         id="stop3704" />
    </linearGradient>
    <filter
       id="filter3174"
       color-interpolation-filters="sRGB">
      <feGaussianBlur
         stdDeviation="1.71"
         id="feGaussianBlur3176" />
    </filter>
    <linearGradient
       gradientUnits="userSpaceOnUse"
       xlink:href="#linearGradient3737"
       id="linearGradient3188"
       y2="63.893143"
       x2="36.357143"
       y1="6"
       x1="36.357143"
       gradientTransform="translate(373.44685,546.00728)" />
    <filter
       id="filter3794"
       color-interpolation-filters="sRGB"
       height="1.3839999"
       width="1.3839999"
       y="-0.192"
       x="-0.192">
      <feGaussianBlur
         stdDeviation="5.28"
         id="feGaussianBlur3796" />
    </filter>
    <linearGradient
       gradientUnits="userSpaceOnUse"
       xlink:href="#linearGradient3737"
       id="linearGradient3613"
       y2="138.66119"
       x2="48"
       y1="20.220806"
       x1="48" />
    <radialGradient
       gradientTransform="matrix(1.1573129,0,0,0.99590774,365.89583,546.20441)"
       gradientUnits="userSpaceOnUse"
       xlink:href="#linearGradient3737"
       id="radialGradient3619"
       fy="90.171875"
       fx="48"
       r="42"
       cy="90.171875"
       cx="48" />
    <clipPath
       id="clipPath3613">
      <rect
         style="fill:#ffffff;fill-opacity:1;fill-rule:nonzero;stroke:none"
         id="rect3615"
         y="6"
         x="6"
         ry="6"
         rx="6"
         height="84"
         width="84" />
    </clipPath>
    <linearGradient
       gradientTransform="translate(373.44685,646.00728)"
       gradientUnits="userSpaceOnUse"
       xlink:href="#linearGradient3700"
       id="linearGradient2843"
       y2="5.9877172"
       x2="48"
       y1="90"
       x1="48" />
    <clipPath
       id="clipPath3625">
      <path
         style="fill:#ffffff;fill-opacity:1;stroke:none"
         id="path3627"
         inkscape:connector-curvature="0"
         d="M 0,0 0,96 96,96 96,0 0,0 z m 12,6 72,0 c 3.324,0 6,2.676 6,6 l 0,72 c 0,3.324 -2.676,6 -6,6 L 12,90 C 8.676,90 6,87.324 6,84 L 6,12 C 6,8.676 8.676,6 12,6 z" />
    </clipPath>
    <linearGradient
       gradientUnits="userSpaceOnUse"
       xlink:href="#linearGradient3637"
       id="linearGradient3643"
       y2="90.015434"
       x2="44.512066"
       y1="6"
       x1="44.512066"
       gradientTransform="translate(373.44685,546.00728)" />
    <clipPath
       id="clipPath3649">
      <rect
         style="fill:#ffffff;fill-opacity:1;fill-rule:nonzero;stroke:none"
         id="rect3651"
         y="10"
         x="10"
         ry="4"
         rx="4"
         height="76"
         width="76" />
    </clipPath>
    <filter
       id="filter3657"
       color-interpolation-filters="sRGB">
      <feGaussianBlur
         stdDeviation="1.14"
         id="feGaussianBlur3659" />
    </filter>
    <linearGradient
       gradientTransform="matrix(1.0058652,0,0,0.994169,270.09292,544.02291)"
       gradientUnits="userSpaceOnUse"
       id="ButtonShadow-5"
       y2="7.0165396"
       x2="45.447727"
       y1="92.539597"
       x1="45.447727">
      <stop
         offset="0"
         style="stop-color:#1a1a1a;stop-opacity:1"
         id="stop3750-6" />
      <stop
         offset="1"
         style="stop-color:#1a1a1a;stop-opacity:0.58823532"
         id="stop3752-7" />
    </linearGradient>
    <filter
       id="filter3174-3"
       color-interpolation-filters="sRGB">
      <feGaussianBlur
         stdDeviation="1.71"
         id="feGaussianBlur3176-4" />
    </filter>
  </defs>
  <sodipodi:namedview
     id="base"
     pagecolor="#ffffff"
     bordercolor="#666666"
     borderopacity="1.0"
     inkscape:pageopacity="0.0"
     inkscape:pageshadow="2"
     inkscape:zoom="2.7731844"
     inkscape:cx="43.902992"
     inkscape:cy="23.166439"
     inkscape:document-units="px"
     inkscape:current-layer="layer1"
     showgrid="false"
     fit-margin-top="0"
     fit-margin-left="0"
     fit-margin-right="0"
     fit-margin-bottom="0"
     inkscape:window-width="1366"
     inkscape:window-height="673"
     inkscape:window-x="0"
     inkscape:window-y="24"
     inkscape:window-maximized="1"
     showguides="false" />
  <metadata
     id="metadata3765">
    <rdf:RDF>
      <cc:Work
         rdf:about="">
        <dc:format>image/svg+xml</dc:format>
        <dc:type
           rdf:resource="http://purl.org/dc/dcmitype/StillImage" />
        <dc:title />
      </cc:Work>
    </rdf:RDF>
  </metadata>
  <g
     inkscape:label="Capa 1"
     inkscape:groupmode="layer"
     id="layer1"
     transform="translate(-550.28572,-582.6479)">
    <rect
       style="opacity:0.9;fill:url(#ButtonShadow);fill-opacity:1;fill-rule:nonzero;stroke:none;display:none;filter:url(#filter3174)"
       id="rect3745"
       clip-path="url(#clipPath3625)"
       y="7"
       x="5"
       ry="6"
       rx="6"
       height="85"
       width="86"
       transform="translate(373.44685,546.00728)" />
    <rect
       style="opacity:0.8;fill:#1a1a1a;fill-opacity:1;fill-rule:nonzero;stroke:none;display:none"
       id="rect2419"
       y="552.00726"
       x="379.44684"
       ry="6"
       rx="6"
       height="84"
       width="84" />
    <path
       style="opacity:0.07999998;fill:#1a1a1a;fill-opacity:1;fill-rule:nonzero;stroke:none;display:none"
       id="rect3726"
       inkscape:connector-curvature="0"
       d="m 387.44685,556.00728 c -2.216,0 -4,1.784 -4,4 l 0,68 c 0,2.216 1.784,4 4,4 l 68,0 c 2.216,0 4,-1.784 4,-4 l 0,-68 c 0,-2.216 -1.784,-4 -4,-4 l -68,0 z m 0,3.0625 68,0 c 0.57877,0 0.9375,0.35873 0.9375,0.9375 l 0,68 c 0,0.57877 -0.35873,0.9375 -0.9375,0.9375 l -68,0 c -0.57877,0 -0.9375,-0.35873 -0.9375,-0.9375 l 0,-68 c 0,-0.57877 0.35873,-0.9375 0.9375,-0.9375 z" />
    <path
       style="fill:url(#linearGradient3643);fill-opacity:1;fill-rule:nonzero;stroke:none;display:none"
       id="rect3629"
       inkscape:connector-curvature="0"
       d="m 385.44685,552.00728 c -3.324,0 -6,2.676 -6,6 l 0,72 c 0,3.324 2.676,6 6,6 l 72,0 c 3.324,0 6,-2.676 6,-6 l 0,-72 c 0,-3.324 -2.676,-6 -6,-6 l -72,0 z m 2,4 68,0 c 2.216,0 4,1.784 4,4 l 0,68 c 0,2.216 -1.784,4 -4,4 l -68,0 c -2.216,0 -4,-1.784 -4,-4 l 0,-68 c 0,-2.216 1.784,-4 4,-4 z" />
    <path
       style="fill:url(#linearGradient3188);fill-opacity:1;fill-rule:nonzero;stroke:none;display:none"
       id="rect3728"
       inkscape:connector-curvature="0"
       d="m 385.44685,552.00728 c -3.324,0 -6,2.676 -6,6 l 0,2 0,68 0,2 c 0,0.33472 0.0414,0.6507 0.0937,0.96875 0.0487,0.2956 0.097,0.59691 0.1875,0.875 0.01,0.0304 0.0209,0.0636 0.0312,0.0937 0.0989,0.28777 0.23488,0.54745 0.375,0.8125 0.14459,0.27351 0.31562,0.53562 0.5,0.78125 0.18438,0.24564 0.37378,0.47347 0.59375,0.6875 0.43995,0.42806 0.94291,0.81453 1.5,1.09375 0.27854,0.13961 0.57347,0.24695 0.875,0.34375 -0.2562,-0.10022 -0.48671,-0.23627 -0.71875,-0.375 -0.007,-0.004 -0.0239,0.005 -0.0312,0 -0.0319,-0.0193 -0.0623,-0.0425 -0.0937,-0.0625 -0.1204,-0.0767 -0.23102,-0.16351 -0.34375,-0.25 -0.10617,-0.0808 -0.21328,-0.16111 -0.3125,-0.25 -0.17793,-0.16143 -0.34746,-0.34539 -0.5,-0.53125 -0.10758,-0.13026 -0.21839,-0.26528 -0.3125,-0.40625 -0.0251,-0.0384 -0.0385,-0.0859 -0.0625,-0.125 -0.0648,-0.10303 -0.13023,-0.20452 -0.1875,-0.3125 -0.10101,-0.19471 -0.20567,-0.4157 -0.28125,-0.625 -0.008,-0.0218 -0.0236,-0.0406 -0.0312,-0.0625 -0.0318,-0.0919 -0.0358,-0.18683 -0.0625,-0.28125 -0.0303,-0.10662 -0.0704,-0.20303 -0.0937,-0.3125 -0.0729,-0.34151 -0.125,-0.69821 -0.125,-1.0625 l 0,-2 0,-68 0,-2 c 0,-2.78185 2.21815,-5 5,-5 l 2,0 68,0 2,0 c 2.78185,0 5,2.21815 5,5 l 0,2 0,68 0,2 c 0,0.36429 -0.0521,0.72099 -0.125,1.0625 -0.0442,0.20689 -0.0884,0.39766 -0.15625,0.59375 -0.008,0.0219 -0.0233,0.0407 -0.0312,0.0625 -0.0627,0.17374 -0.13838,0.36745 -0.21875,0.53125 -0.0416,0.0828 -0.079,0.16995 -0.125,0.25 -0.0546,0.0972 -0.12677,0.18835 -0.1875,0.28125 -0.0941,0.14097 -0.20492,0.27599 -0.3125,0.40625 -0.14317,0.17445 -0.30314,0.347 -0.46875,0.5 -0.0112,0.0102 -0.02,0.0211 -0.0312,0.0312 -0.13839,0.12556 -0.28509,0.23444 -0.4375,0.34375 -0.10257,0.0731 -0.20432,0.15336 -0.3125,0.21875 -0.007,0.005 -0.0238,-0.004 -0.0312,0 -0.23204,0.13873 -0.46255,0.27478 -0.71875,0.375 0.30153,-0.0968 0.59645,-0.20414 0.875,-0.34375 0.55709,-0.27922 1.06005,-0.66569 1.5,-1.09375 0.21997,-0.21403 0.40937,-0.44186 0.59375,-0.6875 0.18438,-0.24563 0.35541,-0.50774 0.5,-0.78125 0.14012,-0.26505 0.27613,-0.52473 0.375,-0.8125 0.0104,-0.0308 0.0213,-0.0627 0.0312,-0.0937 0.0905,-0.27809 0.1388,-0.5794 0.1875,-0.875 0.0524,-0.31805 0.0937,-0.63403 0.0937,-0.96875 l 0,-2 0,-68 0,-2 c 0,-3.324 -2.676,-6 -6,-6 l -72,0 z" />
    <path
       style="opacity:0.6;fill:url(#radialGradient3619);fill-opacity:1;fill-rule:nonzero;stroke:none;display:none"
       id="path3615"
       inkscape:connector-curvature="0"
       d="m 385.44685,636.00728 c -3.324,0 -6,-2.676 -6,-6 l 0,-2 0,-68 0,-2 c 0,-0.33472 0.0414,-0.6507 0.0937,-0.96875 0.0487,-0.2956 0.097,-0.59691 0.1875,-0.875 0.01,-0.0304 0.0209,-0.0636 0.0312,-0.0937 0.0989,-0.28777 0.23488,-0.54745 0.375,-0.8125 0.14459,-0.27351 0.31562,-0.53561 0.5,-0.78125 0.18438,-0.24563 0.37378,-0.47347 0.59375,-0.6875 0.43995,-0.42806 0.94291,-0.81453 1.5,-1.09375 0.27854,-0.13961 0.57347,-0.24695 0.875,-0.34375 -0.2562,0.10022 -0.48671,0.23627 -0.71875,0.375 -0.007,0.004 -0.0239,-0.005 -0.0312,0 -0.0319,0.0193 -0.0623,0.0425 -0.0937,0.0625 -0.1204,0.0767 -0.23102,0.16351 -0.34375,0.25 -0.10617,0.0808 -0.21328,0.16111 -0.3125,0.25 -0.17793,0.16143 -0.34746,0.34539 -0.5,0.53125 -0.10758,0.13026 -0.21839,0.26528 -0.3125,0.40625 -0.0251,0.0384 -0.0385,0.0859 -0.0625,0.125 -0.0648,0.10303 -0.13023,0.20452 -0.1875,0.3125 -0.10101,0.19471 -0.20567,0.4157 -0.28125,0.625 -0.008,0.0218 -0.0236,0.0405 -0.0312,0.0625 -0.0318,0.0919 -0.0358,0.18683 -0.0625,0.28125 -0.0303,0.10662 -0.0704,0.20303 -0.0937,0.3125 -0.0729,0.34151 -0.125,0.69821 -0.125,1.0625 l 0,2 0,68 0,2 c 0,2.78185 2.21815,5 5,5 l 2,0 68,0 2,0 c 2.78185,0 5,-2.21815 5,-5 l 0,-2 0,-68 0,-2 c 0,-0.36429 -0.0521,-0.72099 -0.125,-1.0625 -0.0442,-0.20689 -0.0884,-0.39766 -0.15625,-0.59375 -0.008,-0.022 -0.0233,-0.0407 -0.0312,-0.0625 -0.0627,-0.17374 -0.13838,-0.36745 -0.21875,-0.53125 -0.0416,-0.0828 -0.079,-0.16995 -0.125,-0.25 -0.0546,-0.0972 -0.12677,-0.18835 -0.1875,-0.28125 -0.0941,-0.14097 -0.20492,-0.27599 -0.3125,-0.40625 -0.14317,-0.17445 -0.30314,-0.347 -0.46875,-0.5 -0.0112,-0.0102 -0.02,-0.0212 -0.0312,-0.0312 -0.13839,-0.12556 -0.28509,-0.23444 -0.4375,-0.34375 -0.10257,-0.0732 -0.20432,-0.15336 -0.3125,-0.21875 -0.007,-0.005 -0.0238,0.004 -0.0312,0 -0.23204,-0.13873 -0.46255,-0.27478 -0.71875,-0.375 0.30153,0.0968 0.59645,0.20414 0.875,0.34375 0.55709,0.27922 1.06005,0.66569 1.5,1.09375 0.21997,0.21403 0.40937,0.44187 0.59375,0.6875 0.18438,0.24564 0.35541,0.50774 0.5,0.78125 0.14012,0.26505 0.27613,0.52473 0.375,0.8125 0.0104,0.0308 0.0213,0.0627 0.0312,0.0937 0.0905,0.27809 0.1388,0.5794 0.1875,0.875 0.0524,0.31805 0.0937,0.63403 0.0937,0.96875 l 0,2 0,68 0,2 c 0,3.324 -2.676,6 -6,6 l -72,0 z" />
    <rect
       style="fill:url(#linearGradient2843);fill-opacity:1;fill-rule:nonzero;stroke:none;display:none"
       id="rect2841"
       y="652.00726"
       x="379.44684"
       ry="6"
       rx="6"
       height="84"
       width="84" />
    <rect
       style="fill:#ff0000;fill-opacity:1;fill-rule:nonzero;stroke:none;display:none"
       id="rect3634"
       y="656.00726"
       x="383.44684"
       ry="4"
       rx="4"
       height="76"
       width="76" />
    <path
       style="font-style:normal;font-variant:normal;font-weight:normal;font-stretch:normal;text-indent:0;text-align:start;text-decoration:none;line-height:normal;letter-spacing:normal;word-spacing:normal;text-transform:none;direction:ltr;block-progression:tb;writing-mode:lr-tb;text-anchor:start;color:#1a1a1a;fill:#1a1a1a;fill-opacity:1;stroke:none;stroke-width:2;marker:none;visibility:visible;display:none;overflow:visible;filter:url(#filter3657);enable-background:accumulate;font-family:Abandoned Bitplane;-inkscape-font-specification:Abandoned Bitplane"
       id="rect3647"
       clip-path="url(#clipPath3649)"
       transform="translate(263.44685,546.00728)"
       inkscape:connector-curvature="0"
       d="m 14,9 c -2.752703,0 -5,2.247297 -5,5 l 0,68 c 0,2.752703 2.247297,5 5,5 l 68,0 c 2.752703,0 5,-2.247297 5,-5 L 87,14 C 87,11.247297 84.752703,9 82,9 L 14,9 Z m 0,2 68,0 c 1.679297,0 3,1.320703 3,3 l 0,68 c 0,1.679297 -1.320703,3 -3,3 l -68,0 c -1.679297,0 -3,-1.320703 -3,-3 l 0,-68 c 0,-1.679297 1.320703,-3 3,-3 z" />
    <path
       style="opacity:0.16000001;fill:#1a1a1a;fill-opacity:1;fill-rule:nonzero;stroke:none;display:none"
       id="path3709"
       inkscape:connector-curvature="0"
       d="m 387.53614,556.00728 c -2.216,0 -4,1.784 -4,4 l 0,68 c 0,2.216 1.784,4 4,4 l 68,0 c 2.216,0 4,-1.784 4,-4 l 0,-68 c 0,-2.216 -1.784,-4 -4,-4 l -68,0 z m 0,2 68,0 c 1.1403,0 2,0.8597 2,2 l 0,68 c 0,1.1403 -0.8597,2 -2,2 l -68,0 c -1.14031,0 -2,-0.8597 -2,-2 l 0,-68 c 0,-1.1403 0.85969,-2 2,-2 z" />
    <path
       style="opacity:0.36000001;fill:#1a1a1a;fill-opacity:1;fill-rule:nonzero;stroke:none;display:none"
       id="path3707"
       inkscape:connector-curvature="0"
       d="m 387.44685,556.00728 c -2.216,0 -4,1.784 -4,4 l 0,68 c 0,2.216 1.784,4 4,4 l 68,0 c 2.216,0 4,-1.784 4,-4 l 0,-68 c 0,-2.216 -1.784,-4 -4,-4 l -68,0 z m 0,1 68,0 c 1.67385,0 3,1.32615 3,3 l 0,68 c 0,1.67385 -1.32615,3 -3,3 l -68,0 c -1.67385,0 -3,-1.32615 -3,-3 l 0,-68 c 0,-1.67385 1.32615,-3 3,-3 z" />
    <rect
       style="opacity:0.1;fill:url(#linearGradient3613);fill-opacity:1;fill-rule:nonzero;stroke:#ffffff;stroke-width:0.5;stroke-linecap:round;stroke-linejoin:miter;stroke-miterlimit:4;stroke-opacity:1;stroke-dasharray:none;stroke-dashoffset:0;display:none;filter:url(#filter3794)"
       id="rect3171"
       clip-path="url(#clipPath3613)"
       y="15"
       x="15"
       ry="12"
       rx="12"
       height="66"
       width="66"
       transform="translate(373.44685,546.00728)" />
    <rect
       style="opacity:0.9;fill:url(#ButtonShadow-5);fill-opacity:1;fill-rule:nonzero;stroke:none;display:none;filter:url(#filter3174-3)"
       id="rect3745-1"
       y="551.02289"
       x="275.09293"
       ry="6"
       rx="6"
       height="85"
       width="86" />
    <rect
       style="fill:none;stroke:none"
       id="rect3264"
       width="15"
       height="15"
       x="566.78571"
       y="599.14789" />
    <rect
       y="611.54767"
       x="566.78571"
       height="3.5"
       width="3.5"
       id="rect3276"
       style="fill:#4d4d4d;fill-opacity:1;fill-rule:evenodd;stroke:none" />
    <rect
       style="fill:#4d4d4d;fill-opacity:1;fill-rule:evenodd;stroke:none"
       id="rect3280"
       width="3.5"
       height="3.5"
       x="566.78571"
       y="605.79767" />
    <rect
       style="fill:#4d4d4d;fill-opacity:1;fill-rule:evenodd;stroke:none"
       id="rect3286"
       width="9.500001"
       height="2"
       x="572.28571"
       y="606.54767" />
    <rect
       y="612.29767"
       x="572.28571"
       height="2"
       width="9.500001"
       id="rect3271"
       style="fill:#4d4d4d;fill-opacity:1;fill-rule:evenodd;stroke:none" />
    <rect
       y="-563.28571"
       x="591.64789"
       height="4"
       width="30"
       id="rect3284-8"
       style="fill:#4d4d4d;fill-opacity:1;fill-rule:evenodd;stroke:none"
       transform="matrix(0,1,-1,0,0,0)" />
    <rect
       style="fill:#4d4d4d;fill-opacity:1;fill-rule:evenodd;stroke:none"
       id="rect3286-4"
       width="23.000006"
       height="4"
       x="562.78571"
       y="599.14789" />
    <rect
       transform="matrix(0,1,-1,0,0,0)"
       style="fill:#4d4d4d;fill-opacity:1;fill-rule:evenodd;stroke:none"
       id="rect4185"
       width="30"
       height="4"
       x="591.64789"
       y="-589.28571" />
    <rect
       y="591.64789"
       x="559.28571"
       height="4"
       width="30"
       id="rect4187"
       style="fill:#4d4d4d;fill-opacity:1;fill-rule:evenodd;stroke:none" />
    <rect
       style="fill:#4d4d4d;fill-opacity:1;fill-rule:evenodd;stroke:none"
       id="rect4189"
       width="30"
       height="4"
       x="559.28571"
       y="617.64789" />
  </g>
</svg>
